<mxfile host="app.diagrams.net" modified="2023-09-15T00:43:35.928Z" agent="Mozilla/5.0 (Macintosh; Intel Mac OS X 10_15_7) AppleWebKit/537.36 (KHTML, like Gecko) Chrome/116.0.0.0 Safari/537.36 Edg/116.0.1938.62" version="21.7.4" etag="fnzCkam4kbbdRh-vc7AK" type="github">
  <diagram name="第 1 页" id="KWv_xJGbqL2eg3d4S2oi">
    <mxGraphModel>
      <root>
        <mxCell id="0" />
        <mxCell id="1" parent="0" />
      </root>
    </mxGraphModel>
  </diagram>
</mxfile>
